<svg t="1676363324195" class="icon" viewBox="0 0 1024 1024" version="1.1" xmlns="http://www.w3.org/2000/svg" p-id="10985" width="32" height="32"><path d="M768 574.577778c-15.644444 0-28.444444-12.8-28.444444-28.444445 0-108.088889-88.177778-196.266667-196.266667-196.266666s-196.266667 88.177778-196.266667 196.266666c0 15.644444-12.8 28.444444-28.444444 28.444445s-28.444444-12.8-28.444445-28.444445c0-139.377778 113.777778-253.155556 253.155556-253.155555S796.444444 406.755556 796.444444 546.133333c0 17.066667-12.8 28.444444-28.444444 28.444445z" fill="#cbcbcb" p-id="10986"></path><path d="M768 807.822222c-15.644444 0-28.444444-12.8-28.444444-28.444444V546.133333c0-15.644444 12.8-28.444444 28.444444-28.444444 79.644444 0 145.066667 65.422222 145.066667 145.066667S847.644444 807.822222 768 807.822222z m28.444444-227.555555v166.4c34.133333-11.377778 59.733333-44.088889 59.733334-83.911111s-25.6-71.111111-59.733334-82.488889zM317.155556 807.822222c-79.644444 0-145.066667-65.422222-145.066667-145.066666s65.422222-145.066667 145.066667-145.066667c15.644444 0 28.444444 12.8 28.444444 28.444444v233.244445c0 15.644444-12.8 28.444444-28.444444 28.444444z m-28.444445-227.555555c-34.133333 11.377778-59.733333 44.088889-59.733333 83.911111s25.6 71.111111 59.733333 83.911111V580.266667z" fill="#cbcbcb" p-id="10987"></path></svg>